<?xml version="1.0" encoding="utf-8"?>
<!-- Generator: Adobe Illustrator 19.0.0, SVG Export Plug-In . SVG Version: 6.00 Build 0)  -->
<svg version="1.1" id="Calque_1" xmlns="http://www.w3.org/2000/svg" xmlns:xlink="http://www.w3.org/1999/xlink" x="0px" y="0px"
	 viewBox="-41 164.9 512 512" style="enable-background:new -41 164.9 512 512;" xml:space="preserve">
<style type="text/css">
	.st0{fill:#D3C071;}
</style>
<path class="st0" d="M215,676.9c-141.4,0-256-114.6-256-256s114.6-256,256-256s256,114.6,256,256S356.4,676.9,215,676.9z M215,292.9
	c-70.7,0-128,57.3-128,128c0,52.7,31.8,97.9,77.3,117.6c-0.3-8.9,0-19.6,2.2-29.2c2.5-10.4,16.5-70,16.5-70s-4.1-8.2-4.1-20.3
	c0-19,11-33.3,24.8-33.3c11.7,0,17.3,8.8,17.3,19.3c0,11.7-7.5,29.3-11.4,45.6c-3.2,13.6,6.9,24.8,20.3,24.8
	c24.3,0,40.7-31.3,40.7-68.3c0-28.1-18.9-49.2-53.4-49.2c-39,0-63.3,29.1-63.3,61.5c0,11.2,3.3,19.1,8.5,25.2
	c2.4,2.8,2.7,3.9,1.8,7.2c-0.6,2.4-2,8-2.6,10.3c-0.9,3.3-3.5,4.4-6.4,3.2c-17.9-7.3-26.3-27-26.3-49.1c0-36.5,30.8-80.3,91.8-80.3
	c49.1,0,81.3,35.5,81.3,73.6c0,50.4-28,88.1-69.3,88.1c-13.9,0-26.9-7.5-31.4-16c0,0-7.5,29.6-9,35.3c-2.7,9.8-7.9,19.5-12.7,27.2
	c11.2,3.2,23,4.9,35.3,4.9c70.7,0,128-57.3,128-128S285.7,292.9,215,292.9z"/>
</svg>
