<?xml version="1.0" encoding="utf-8"?>
<!-- Generator: Adobe Illustrator 19.0.0, SVG Export Plug-In . SVG Version: 6.00 Build 0)  -->
<svg version="1.1" id="Calque_1" xmlns="http://www.w3.org/2000/svg" xmlns:xlink="http://www.w3.org/1999/xlink" x="0px" y="0px"
	 viewBox="-41 164.9 512 512" style="enable-background:new -41 164.9 512 512;" xml:space="preserve">
<style type="text/css">
	.st0{fill:#7DCFB6;}
</style>
<path class="st0" d="M215,676.9c-141.4,0-256-114.6-256-256s114.6-256,256-256s256,114.6,256,256S356.4,676.9,215,676.9z
	 M335.7,298.6c-7.4,5.9-24.5,14.4-32.9,14.4c0,0,0,0,0,0c-9.6-12.4-23.2-20.1-38.2-20.1c-29.2,0-52.8,29.1-52.8,65
	c0,5,0.5,9.8,1.3,14.5h0c-39.6-1.3-82.8-25.7-108.9-67.5c-16,34.1-2.2,72.1,16,85.9c-6.2,0.6-17.7-0.9-23.1-7.4
	c-0.4,22.6,8.5,52.6,40.7,63.5c-6.2,4.1-17.2,2.9-22,2.1c1.7,19.1,23.4,44.1,47.2,44.1c-8.5,12.1-40.4,34-76.2,27
	c24.3,18.2,52.6,28.7,82.6,28.7c85.2,0,151.4-85,147.8-189.8c0-0.1,0-0.2,0-0.4c0-0.3,0-0.5,0-0.8c0-0.3,0-0.6,0-1
	c7.8-6.5,18.2-18.1,25.6-33.3c-4.3,2.9-17.3,8.8-29.3,10.2C321.4,328.7,332.9,311.9,335.7,298.6z"/>
</svg>
